<svg xmlns="http://www.w3.org/2000/svg" width="65" height="64" fill="none"><path fill="url(#a)" d="M8 20.395v15.538c0 .548.444.992.992.992h7.596a.992.992 0 0 0 .992-.992v-8.56c0-.548.444-.992.992-.992h1.997c.548 0 .992.444.992.991v8.561c0 .548.444.992.992.992h7.776a.992.992 0 0 0 .992-.992V20.41c0-.446-.229-.862-.606-1.102L20.14 12.6a1.305 1.305 0 0 0-1.419.013L8.586 19.306c-.366.242-.586.65-.586 1.089Z"/><path fill="url(#b)" d="M34.722 28.2v7.733c0 .548.444.992.992.992h20.852a.992.992 0 0 0 .991-.992v-7.42c0-.721-.584-1.305-1.305-1.305H35.714a.992.992 0 0 0-.992.992Z"/><path fill="url(#c)" d="M21.937 0c-.72 0-1.305.584-1.305 1.305v6.649c0 .337.172.651.455.834l12.944 8.335c.373.24.598.654.598 1.098v4.594c0 .548.444.992.992.992h9.284a.992.992 0 0 0 .992-.992V1.305c0-.72-.584-1.305-1.305-1.305H21.937Z"/><path fill="url(#d)" d="M56.98 40.326h-8.072a1.01 1.01 0 0 0-1 .904c-.271 2.552-1.194 9.895-3.17 14.083-1.843 3.902-4.523 7.066-5.626 8.282-.16.177-.017.45.215.399 3.297-.734 16.886-4.823 18.627-22.597a.98.98 0 0 0-.973-1.071Z"/><path fill="url(#e)" d="M34.722 41.318V63.42c0 .442.52.65.811.318a42.452 42.452 0 0 0 6.139-9.27c2.36-4.884 2.715-10.88 2.761-13.181a.947.947 0 0 0-.962-.961h-7.757a.992.992 0 0 0-.992.992Z"/><path fill="url(#f)" d="M9.063 40.326h8.072c.515 0 .945.392 1 .904.271 2.552 1.194 9.895 3.17 14.083 1.843 3.902 4.523 7.066 5.626 8.282.16.177.017.45-.215.399C23.419 63.26 9.83 59.17 8.089 41.397a.98.98 0 0 1 .974-1.071Z"/><path fill="url(#g)" d="M31.321 41.318V63.42c0 .442-.52.65-.811.318a42.444 42.444 0 0 1-6.138-9.27c-2.36-4.884-2.716-10.88-2.762-13.181a.948.948 0 0 1 .962-.961h7.757c.548 0 .992.444.992.992Z"/><defs><linearGradient id="a" x1="8" x2="51.198" y1="7.082" y2="63.97" gradientUnits="userSpaceOnUse"><stop offset="0" stop-color="#007AFF"/><stop offset=".47" stop-color="#014EFB"/><stop offset="1" stop-color="#003875"/></linearGradient><linearGradient id="b" x1="8" x2="51.198" y1="7.082" y2="63.97" gradientUnits="userSpaceOnUse"><stop offset="0" stop-color="#007AFF"/><stop offset=".47" stop-color="#014EFB"/><stop offset="1" stop-color="#003875"/></linearGradient><linearGradient id="c" x1="8" x2="51.198" y1="7.082" y2="63.97" gradientUnits="userSpaceOnUse"><stop offset="0" stop-color="#007AFF"/><stop offset=".47" stop-color="#014EFB"/><stop offset="1" stop-color="#003875"/></linearGradient><linearGradient id="d" x1="8" x2="51.198" y1="7.082" y2="63.97" gradientUnits="userSpaceOnUse"><stop offset="0" stop-color="#007AFF"/><stop offset=".47" stop-color="#014EFB"/><stop offset="1" stop-color="#003875"/></linearGradient><linearGradient id="e" x1="8" x2="51.198" y1="7.082" y2="63.97" gradientUnits="userSpaceOnUse"><stop offset="0" stop-color="#007AFF"/><stop offset=".47" stop-color="#014EFB"/><stop offset="1" stop-color="#003875"/></linearGradient><linearGradient id="f" x1="8" x2="51.198" y1="7.082" y2="63.97" gradientUnits="userSpaceOnUse"><stop offset="0" stop-color="#007AFF"/><stop offset=".47" stop-color="#014EFB"/><stop offset="1" stop-color="#003875"/></linearGradient><linearGradient id="g" x1="8" x2="51.198" y1="7.082" y2="63.97" gradientUnits="userSpaceOnUse"><stop offset="0" stop-color="#007AFF"/><stop offset=".47" stop-color="#014EFB"/><stop offset="1" stop-color="#003875"/></linearGradient></defs></svg>